<svg width="48" height="48" viewBox="0 0 48 48" fill="none" xmlns="http://www.w3.org/2000/svg">
<path d="M14.678 20.17L23.9999 10.848L33.3263 20.174L38.7502 14.75L23.9999 0L9.25436 14.7456L14.6782 20.1696L14.678 20.17ZM0 24L5.42417 18.575L10.848 23.9988L5.42379 29.423L0 24ZM14.678 27.8306L23.9999 37.152L33.3261 27.8262L38.7529 33.2473L38.7502 33.2502L23.9999 48L9.25436 33.2544L9.24668 33.2467L14.6785 27.83L14.678 27.8306ZM37.1519 24.0023L42.576 18.5781L47.9998 24.0019L42.5758 29.4261L37.1519 24.0023Z" fill="#EFCF46"/>
<path d="M29.5012 23.997H29.5035L24 18.4932L19.9321 22.5599L19.4648 23.0274L18.501 23.9915L18.4933 23.999L18.501 24.0068L24 29.5067L29.5039 24.0028L29.5066 23.9997L29.5016 23.997" fill="#EFCF46"/>
</svg>
