<svg width="190" height="28" viewBox="0 0 190 28" fill="none" xmlns="http://www.w3.org/2000/svg">
<path d="M49.8761 19.795L48.5545 18.8941V21.0436C48.5545 23.0739 46.9028 24.7257 44.8724 24.7257C44.8724 24.7257 43.6061 24.7188 42.1674 24.7194C40.2348 24.6102 38.6959 23.003 38.6959 21.0436L38.6969 6.385C38.6969 2.87354 35.8239 0 32.3119 0H0V10.2309C0 13.7424 2.87301 16.6159 6.38499 16.6159H20.6708L20.6729 21.0436C20.6729 24.555 23.5459 27.4286 27.0579 27.4286H44.873C48.3844 27.4286 51.258 24.5556 51.258 21.0436V18.8941L49.8761 19.795ZM31.034 21.0436V17.6875C31.0345 17.6875 31.0345 17.687 31.035 17.687V16.6159H35.993V21.0436C35.993 22.4102 36.4282 23.6803 37.167 24.722C36.2959 24.7225 35.4233 24.723 34.5959 24.723C32.6212 24.6595 31.034 23.0335 31.034 21.0436ZM32.3119 2.70343C34.3423 2.70343 35.994 4.3552 35.994 6.38553V13.9135H31.035V6.38553C31.035 5.01727 30.5987 3.74563 29.8584 2.70343H32.3119ZM24.6506 2.70343C26.6809 2.70343 28.3327 4.3552 28.3327 6.38553V13.9135H23.3737V6.385C23.3737 5.01675 22.9374 3.7451 22.1971 2.7029H24.6506V2.70343ZM2.7029 10.2314V2.70343H7.66189V10.2314C7.66189 11.5997 8.0982 12.8708 8.83851 13.9135H6.38499C4.35467 13.913 2.7029 12.2612 2.7029 10.2314ZM14.0464 13.913C12.016 13.913 10.3643 12.2612 10.3643 10.2309V2.7029H16.9882C19.0185 2.7029 20.6703 4.35468 20.6703 6.385V13.913H14.0464ZM23.3753 21.0436V16.6159H28.3311V21.0436C28.3311 22.4118 28.7674 23.6835 29.5077 24.7257H27.0574C25.027 24.7257 23.3753 23.0739 23.3753 21.0436Z" fill="#FECE2E"/>
<path d="M19.5701 7.1377H17.8679V8.83987H19.5701V7.1377Z" fill="#FECE2E"/>
<path d="M34.894 7.1377H33.1918V8.83987H34.894V7.1377Z" fill="#FECE2E"/>
<path d="M27.2312 7.1377H25.5291V8.83987H27.2312V7.1377Z" fill="#FECE2E"/>
<path d="M68.4078 18.5384H74.7082V21.3576H65.4604V6.40733H74.6015V9.22651H68.4078V12.4088H74.0675V15.1853H68.4078V18.5384Z" fill="white" fill-opacity="0.9"/>
<path d="M75.8033 21.3576V5.7666H78.5584V21.3576H75.8033Z" fill="white" fill-opacity="0.9"/>
<path d="M82.5538 17.1501C82.924 18.4885 83.9278 19.1577 85.5652 19.1577C86.6188 19.1577 87.4162 18.8018 87.9572 18.0899L90.1784 19.3713C89.1248 20.8948 87.5728 21.6566 85.5225 21.6566C83.7569 21.6566 82.3402 21.1226 81.2723 20.0548C80.2045 18.9869 79.6705 17.6414 79.6705 16.0182C79.6705 14.4093 80.1973 13.0709 81.251 12.003C82.3046 10.9209 83.6573 10.3798 85.3089 10.3798C86.8751 10.3798 88.1637 10.9209 89.1746 12.003C90.1998 13.0851 90.7123 14.4235 90.7123 16.0182C90.7123 16.3742 90.6767 16.7515 90.6056 17.1501H82.5538ZM82.5111 15.0144H87.9572C87.8006 14.2882 87.4731 13.7472 86.9748 13.3912C86.4907 13.0353 85.9354 12.8573 85.3089 12.8573C84.5685 12.8573 83.9563 13.0495 83.4722 13.4339C82.988 13.8041 82.6677 14.331 82.5111 15.0144Z" fill="white" fill-opacity="0.9"/>
<path d="M97.9964 10.3798C99.4345 10.3798 100.659 10.928 101.67 12.0243C102.695 13.1065 103.208 14.4377 103.208 16.0182C103.208 17.5986 102.695 18.9371 101.67 20.0334C100.659 21.1155 99.4345 21.6566 97.9964 21.6566C96.5014 21.6566 95.3481 21.1369 94.5365 20.0975V25.6291H91.7814V10.6788H94.5365V11.9389C95.3481 10.8995 96.5014 10.3798 97.9964 10.3798ZM95.3694 18.1967C95.9247 18.752 96.6295 19.0296 97.4838 19.0296C98.3381 19.0296 99.0429 18.752 99.5982 18.1967C100.168 17.6271 100.453 16.901 100.453 16.0182C100.453 15.1354 100.168 14.4164 99.5982 13.8611C99.0429 13.2916 98.3381 13.0068 97.4838 13.0068C96.6295 13.0068 95.9247 13.2916 95.3694 13.8611C94.8141 14.4164 94.5365 15.1354 94.5365 16.0182C94.5365 16.901 94.8141 17.6271 95.3694 18.1967Z" fill="white" fill-opacity="0.9"/>
<path d="M110.234 10.3798C111.401 10.3798 112.362 10.7714 113.117 11.5545C113.886 12.3376 114.27 13.4197 114.27 14.8008V21.3576H111.515V15.1425C111.515 14.4306 111.323 13.8896 110.939 13.5194C110.554 13.1349 110.042 12.9427 109.401 12.9427C108.689 12.9427 108.119 13.1634 107.692 13.6048C107.265 14.0462 107.051 14.7083 107.051 15.591V21.3576H104.296V6.40733H107.051V11.8748C107.721 10.8782 108.781 10.3798 110.234 10.3798Z" fill="white" fill-opacity="0.9"/>
<path d="M123.884 10.6788H126.639V21.3576H123.884V20.0975C123.059 21.1369 121.898 21.6566 120.403 21.6566C118.979 21.6566 117.755 21.1155 116.73 20.0334C115.719 18.9371 115.213 17.5986 115.213 16.0182C115.213 14.4377 115.719 13.1065 116.73 12.0243C117.755 10.928 118.979 10.3798 120.403 10.3798C121.898 10.3798 123.059 10.8995 123.884 11.9389V10.6788ZM118.801 18.1967C119.357 18.752 120.061 19.0296 120.916 19.0296C121.77 19.0296 122.475 18.752 123.03 18.1967C123.6 17.6271 123.884 16.901 123.884 16.0182C123.884 15.1354 123.6 14.4164 123.03 13.8611C122.475 13.2916 121.77 13.0068 120.916 13.0068C120.061 13.0068 119.357 13.2916 118.801 13.8611C118.246 14.4164 117.968 15.1354 117.968 16.0182C117.968 16.901 118.246 17.6271 118.801 18.1967Z" fill="white" fill-opacity="0.9"/>
<path d="M134.221 10.3798C135.388 10.3798 136.35 10.7714 137.104 11.5545C137.873 12.3376 138.257 13.4197 138.257 14.8008V21.3576H135.502V15.1425C135.502 14.4306 135.31 13.8896 134.926 13.5194C134.541 13.1349 134.029 12.9427 133.388 12.9427C132.676 12.9427 132.106 13.1634 131.679 13.6048C131.252 14.0462 131.039 14.7083 131.039 15.591V21.3576H128.283V10.6788H131.039V11.8748C131.708 10.8782 132.769 10.3798 134.221 10.3798Z" fill="white" fill-opacity="0.9"/>
<path d="M145.864 13.3272H143.45V17.7695C143.45 18.1397 143.543 18.4102 143.728 18.5811C143.913 18.752 144.184 18.8516 144.54 18.8801C144.896 18.8943 145.337 18.8872 145.864 18.8587V21.3576C143.97 21.5711 142.632 21.3932 141.849 20.8236C141.08 20.2541 140.695 19.2361 140.695 17.7695V13.3272H138.837V10.6788H140.695V8.52172L143.45 7.68877V10.6788H145.864V13.3272Z" fill="white" fill-opacity="0.9"/>
<path d="M149.264 13.7116C149.264 13.9964 149.449 14.2313 149.82 14.4164C150.204 14.5872 150.667 14.7439 151.208 14.8862C151.749 15.0144 152.29 15.1853 152.831 15.3988C153.372 15.5982 153.828 15.9399 154.198 16.424C154.582 16.9081 154.774 17.5132 154.774 18.2394C154.774 19.3357 154.362 20.1829 153.536 20.7809C152.724 21.3647 151.706 21.6566 150.482 21.6566C148.289 21.6566 146.794 20.8094 145.997 19.115L148.389 17.7695C148.702 18.695 149.399 19.1577 150.482 19.1577C151.464 19.1577 151.955 18.8516 151.955 18.2394C151.955 17.9546 151.763 17.7268 151.379 17.5559C151.008 17.3708 150.553 17.2071 150.012 17.0647C149.471 16.9223 148.93 16.7444 148.389 16.5308C147.848 16.3172 147.385 15.9826 147 15.527C146.63 15.0571 146.445 14.4733 146.445 13.7757C146.445 12.722 146.829 11.8962 147.598 11.2982C148.381 10.6859 149.35 10.3798 150.503 10.3798C151.371 10.3798 152.162 10.5792 152.874 10.9778C153.586 11.3623 154.148 11.9176 154.561 12.6437L152.212 13.9252C151.87 13.199 151.3 12.8359 150.503 12.8359C150.147 12.8359 149.848 12.9142 149.606 13.0709C149.378 13.2275 149.264 13.4411 149.264 13.7116Z" fill="white" fill-opacity="0.9"/>
<path d="M157.74 19.948H164.574V21.3576H156.245V6.40733H157.74V19.948Z" fill="white" fill-opacity="0.9"/>
<path d="M174.289 10.6788H175.698V21.3576H174.289V19.2645C173.306 20.8308 171.868 21.6139 169.974 21.6139C168.451 21.6139 167.148 21.0728 166.066 19.9907C164.998 18.9086 164.464 17.5844 164.464 16.0182C164.464 14.452 164.998 13.1278 166.066 12.0457C167.148 10.9636 168.451 10.4225 169.974 10.4225C171.868 10.4225 173.306 11.2056 174.289 12.7719V10.6788ZM167.091 19.0296C167.903 19.8412 168.899 20.247 170.081 20.247C171.263 20.247 172.26 19.8412 173.071 19.0296C173.883 18.2038 174.289 17.2 174.289 16.0182C174.289 14.8364 173.883 13.8397 173.071 13.0281C172.26 12.2023 171.263 11.7894 170.081 11.7894C168.899 11.7894 167.903 12.2023 167.091 13.0281C166.279 13.8397 165.874 14.8364 165.874 16.0182C165.874 17.2 166.279 18.2038 167.091 19.0296Z" fill="white" fill-opacity="0.9"/>
<path d="M183.552 10.4225C185.076 10.4225 186.371 10.9636 187.439 12.0457C188.521 13.1278 189.062 14.452 189.062 16.0182C189.062 17.5844 188.521 18.9086 187.439 19.9907C186.371 21.0728 185.076 21.6139 183.552 21.6139C181.658 21.6139 180.22 20.8308 179.238 19.2645V21.3576H177.828V6.40733H179.238V12.7719C180.22 11.2056 181.658 10.4225 183.552 10.4225ZM180.455 19.0296C181.267 19.8412 182.264 20.247 183.445 20.247C184.627 20.247 185.624 19.8412 186.435 19.0296C187.247 18.2038 187.653 17.2 187.653 16.0182C187.653 14.8364 187.247 13.8397 186.435 13.0281C185.624 12.2023 184.627 11.7894 183.445 11.7894C182.264 11.7894 181.267 12.2023 180.455 13.0281C179.644 13.8397 179.238 14.8364 179.238 16.0182C179.238 17.2 179.644 18.2038 180.455 19.0296Z" fill="white" fill-opacity="0.9"/>
</svg>
