<svg width="41" height="48" viewBox="0 0 41 48" fill="none" xmlns="http://www.w3.org/2000/svg">
<g clip-path="url(#clip0_93_410)">
<path d="M20.6369 48H19.8861C19.8685 47.9765 19.8556 47.9425 19.8309 47.9307C16.434 46.375 13.1964 44.4926 10.164 42.31C7.32308 40.2646 4.68898 37.99 2.64468 35.1139C1.03156 32.851 0.00588989 30.3732 0.00588989 27.5429C0.00588989 20.8069 0.00588989 14.0681 0.00588989 7.32661C0.00588989 6.32561 0.345432 5.87563 1.29826 5.58896C7.38418 3.76319 13.4689 1.93663 19.5525 0.109286C20.0151 -0.0364286 20.5114 -0.0364286 20.9741 0.109286C27.0569 1.94211 33.1416 3.76867 39.2283 5.58896C40.1846 5.87563 40.5207 6.32561 40.5207 7.32661C40.5207 14.0626 40.5207 20.8014 40.5207 27.5429C40.5197 29.1415 40.1872 30.7225 39.5443 32.1861C38.3295 34.9858 36.3721 37.2251 34.1528 39.2507C31.2285 41.9188 27.9529 44.0994 24.4929 46.0039C23.2263 46.7018 21.9234 47.3374 20.6369 48Z" fill="#0487CF"/>
<path fill-rule="evenodd" clip-rule="evenodd" d="M20.6438 47.9965L19.8834 47.9963C19.8791 47.9901 19.875 47.9833 19.8708 47.9765C19.8595 47.9578 19.8481 47.9389 19.8309 47.9307C16.434 46.375 13.1964 44.4926 10.164 42.31C9.15961 41.5869 8.18112 40.8351 7.24539 40.0383C7.30573 39.7578 7.3812 39.4793 7.47453 39.203C8.46344 36.2826 10.4385 34.2506 13.4182 33.193C14.0637 32.9631 14.7462 32.8329 15.4486 32.6988C15.7779 32.636 16.1116 32.5723 16.448 32.4971C16.4968 32.3741 16.48 32.2165 16.4624 32.0517C16.425 31.7006 16.384 31.3164 16.9661 31.161C16.9538 31.0287 16.9538 30.8956 16.9661 30.7633C17.0393 30.3854 16.8465 30.2117 16.5267 30.0272C15.0512 29.1904 13.9144 27.8933 13.3033 26.3492C13.2106 26.1253 13.1207 26.0411 12.851 26.0805C12.1485 26.1817 11.7471 25.8396 11.7471 25.1482C11.7478 24.7919 11.7458 24.4355 11.7437 24.0792C11.7375 23.0026 11.7313 21.9261 11.8009 20.8496C11.9575 18.4155 13.0595 16.3915 15.0448 14.9094C17.98 12.7207 21.2035 12.4018 24.5196 14.0138C27.0609 15.2488 28.6634 17.3077 29.0684 20.0275C29.2618 21.3098 29.2503 22.6215 29.2388 23.931C29.2349 24.3783 29.231 24.8254 29.2352 25.2709C29.2408 25.862 28.808 26.1602 28.1926 26.0984L27.8218 26.0608C27.8078 26.0931 27.7944 26.124 27.7815 26.1536C27.7365 26.257 27.6978 26.3461 27.6596 26.4351C27.0337 27.961 25.8925 29.2379 24.4214 30.0585C24.1118 30.2332 23.9681 30.4221 24.0339 30.7517C24.0658 30.9269 24.1138 31.0989 24.1776 31.2657C24.2083 31.3425 24.2519 31.416 24.2953 31.4891C24.3592 31.5969 24.4226 31.7039 24.4436 31.8192C24.4759 31.9995 24.4686 32.1868 24.4612 32.3765C24.458 32.4591 24.4547 32.5421 24.4547 32.6252C26.6865 32.6968 28.6486 33.3533 30.3372 34.6849C32.0552 36.0396 33.1974 37.7057 33.6746 39.6799C30.8732 42.1542 27.7655 44.2025 24.4929 46.0039C23.6121 46.4892 22.7138 46.9444 21.8156 47.3995C21.4245 47.5977 21.0334 47.7958 20.6438 47.9965Z" fill="#EFCF46"/>
</g>
<defs>
<clipPath id="clip0_93_410">
<rect width="40.523" height="48" fill="white"/>
</clipPath>
</defs>
</svg>
