<svg width="172" height="56" viewBox="0 0 172 56" fill="none" xmlns="http://www.w3.org/2000/svg">
<path d="M73.9155 23.4593C72.7815 23.4593 71.7665 23.2143 70.8705 22.7243C69.9745 22.2203 69.2675 21.5343 68.7495 20.6663C68.2455 19.7843 67.9935 18.7903 67.9935 17.6843V8.61228H70.2615V17.4953C70.2615 18.2093 70.4295 18.8533 70.7655 19.4273C71.1015 19.9873 71.5425 20.4353 72.0885 20.7713C72.6485 21.1073 73.2575 21.2753 73.9155 21.2753C74.6155 21.2753 75.2455 21.1073 75.8055 20.7713C76.3795 20.4353 76.8345 19.9873 77.1705 19.4273C77.5065 18.8533 77.6745 18.2093 77.6745 17.4953V8.61228H79.8375V17.6843C79.8375 18.7903 79.5785 19.7843 79.0605 20.6663C78.5565 21.5343 77.8565 22.2203 76.9605 22.7243C76.0645 23.2143 75.0495 23.4593 73.9155 23.4593Z" fill="white"/>
<path d="M86.805 18.8813L86.679 16.3403L94.386 8.63328H97.368L86.805 18.8813ZM84.915 23.3333V8.63328H87.183V23.3333H84.915ZM94.659 23.3333L89.031 15.8153L90.711 14.3663L97.494 23.3333H94.659Z" fill="white"/>
<path d="M101.463 23.3333V8.63328H107.721C108.561 8.63328 109.331 8.84328 110.031 9.26328C110.745 9.66928 111.312 10.2293 111.732 10.9433C112.152 11.6433 112.362 12.4343 112.362 13.3163C112.362 14.1143 112.152 14.8563 111.732 15.5423C111.312 16.2283 110.752 16.7813 110.052 17.2013C109.352 17.6073 108.575 17.8103 107.721 17.8103H103.731V23.3333H101.463ZM110.199 23.3333L106.461 16.6973L108.792 16.1723L112.95 23.3543L110.199 23.3333ZM103.731 15.6263H107.931C108.337 15.6263 108.701 15.5283 109.023 15.3323C109.345 15.1223 109.597 14.8423 109.779 14.4923C109.961 14.1283 110.052 13.7293 110.052 13.2953C110.052 12.8053 109.933 12.3783 109.695 12.0143C109.471 11.6363 109.149 11.3423 108.729 11.1323C108.323 10.9223 107.861 10.8173 107.343 10.8173H103.731V15.6263Z" fill="white"/>
<path d="M115.698 23.3333L121.389 8.63328H123.699L129.348 23.3333H126.933L123.573 14.4713C123.531 14.3733 123.447 14.1353 123.321 13.7573C123.209 13.3793 123.076 12.9593 122.922 12.4973C122.768 12.0353 122.628 11.6153 122.502 11.2373C122.376 10.8453 122.292 10.5933 122.25 10.4813L122.733 10.4603C122.649 10.6983 122.544 10.9993 122.418 11.3633C122.306 11.7273 122.18 12.1123 122.04 12.5183C121.914 12.9243 121.788 13.3093 121.662 13.6733C121.536 14.0233 121.431 14.3173 121.347 14.5553L118.008 23.3333H115.698ZM118.218 19.6793L119.058 17.4953H125.736L126.702 19.6793H118.218Z" fill="white"/>
<path d="M132.556 23.3333V21.2333H134.929V10.7333H132.556V8.63328H139.57V10.7333H137.197V21.2333H139.57V23.3333H132.556Z" fill="white"/>
<path d="M144.297 23.3333V8.63328H146.334L155.322 20.6663L154.986 20.8553C154.888 20.2813 154.804 19.6163 154.734 18.8603C154.678 18.1043 154.636 17.2713 154.608 16.3613C154.58 15.4513 154.566 14.4853 154.566 13.4633V8.63328H156.834V23.3333H154.755L145.914 11.7413L146.145 11.4473C146.243 12.5113 146.32 13.3863 146.376 14.0723C146.432 14.7443 146.474 15.2833 146.502 15.6893C146.53 16.0953 146.544 16.4173 146.544 16.6553C146.558 16.8793 146.565 17.0683 146.565 17.2223V23.3333H144.297Z" fill="white"/>
<path d="M162.116 23.3333V8.63328H171.377V10.8173H164.384V21.1493H171.377V23.3333H162.116ZM163.145 16.8863V14.7023H170.222V16.8863H163.145Z" fill="white"/>
<path d="M66.6705 50.1666L72.3615 35.4666H74.6715L80.3205 50.1666H77.9055L74.5455 41.3046C74.5035 41.2066 74.4195 40.9686 74.2935 40.5906C74.1815 40.2126 74.0485 39.7926 73.8945 39.3306C73.7405 38.8686 73.6005 38.4486 73.4745 38.0706C73.3485 37.6786 73.2645 37.4266 73.2225 37.3146L73.7055 37.2936C73.6215 37.5316 73.5165 37.8326 73.3905 38.1966C73.2785 38.5606 73.1525 38.9456 73.0125 39.3516C72.8865 39.7576 72.7605 40.1426 72.6345 40.5066C72.5085 40.8566 72.4035 41.1506 72.3195 41.3886L68.9805 50.1666H66.6705ZM69.1905 46.5126L70.0305 44.3286H76.7085L77.6745 46.5126H69.1905Z" fill="white"/>
<path d="M84.0742 50.1666V35.4666H86.1112L95.0992 47.4996L94.7632 47.6886C94.6652 47.1146 94.5812 46.4496 94.5112 45.6936C94.4552 44.9376 94.4132 44.1046 94.3852 43.1946C94.3572 42.2846 94.3432 41.3186 94.3432 40.2966V35.4666H96.6112V50.1666H94.5322L85.6912 38.5746L85.9222 38.2806C86.0202 39.3446 86.0972 40.2196 86.1532 40.9056C86.2092 41.5776 86.2512 42.1166 86.2792 42.5226C86.3072 42.9286 86.3212 43.2506 86.3212 43.4886C86.3352 43.7126 86.3422 43.9016 86.3422 44.0556V50.1666H84.0742Z" fill="white"/>
<path d="M108.466 50.3766C107.402 50.3766 106.408 50.1876 105.484 49.8096C104.56 49.4176 103.748 48.8786 103.048 48.1926C102.348 47.5066 101.802 46.7086 101.41 45.7986C101.032 44.8746 100.843 43.8806 100.843 42.8166C100.843 41.7666 101.032 40.7866 101.41 39.8766C101.802 38.9666 102.341 38.1756 103.027 37.5036C103.727 36.8176 104.539 36.2856 105.463 35.9076C106.387 35.5296 107.381 35.3406 108.445 35.3406C109.187 35.3406 109.908 35.4456 110.608 35.6556C111.322 35.8656 111.966 36.1596 112.54 36.5376C113.114 36.9156 113.583 37.3496 113.947 37.8396L112.477 39.3726C111.847 38.7706 111.189 38.3156 110.503 38.0076C109.831 37.6996 109.145 37.5456 108.445 37.5456C107.689 37.5456 106.989 37.6786 106.345 37.9446C105.715 38.2106 105.155 38.5816 104.665 39.0576C104.189 39.5336 103.818 40.0936 103.552 40.7376C103.286 41.3676 103.153 42.0606 103.153 42.8166C103.153 43.5446 103.293 44.2376 103.573 44.8956C103.853 45.5396 104.238 46.1066 104.728 46.5966C105.232 47.0866 105.806 47.4716 106.45 47.7516C107.108 48.0316 107.801 48.1716 108.529 48.1716C109.075 48.1716 109.593 48.0946 110.083 47.9406C110.573 47.7726 111.007 47.5416 111.385 47.2476C111.763 46.9536 112.057 46.6176 112.267 46.2396C112.477 45.8476 112.582 45.4346 112.582 45.0006V44.5806L112.897 44.8746H108.403V42.6276H114.913C114.941 42.7816 114.962 42.9356 114.976 43.0896C114.99 43.2296 114.997 43.3696 114.997 43.5096C115.011 43.6356 115.018 43.7616 115.018 43.8876C115.018 44.8536 114.85 45.7356 114.514 46.5336C114.178 47.3176 113.709 47.9966 113.107 48.5706C112.519 49.1446 111.826 49.5926 111.028 49.9146C110.244 50.2226 109.39 50.3766 108.466 50.3766Z" fill="white"/>
<path d="M119.138 50.1666V35.4666H128.399V37.6506H121.406V47.9826H128.399V50.1666H119.138ZM120.167 43.7196V41.5356H127.244V43.7196H120.167Z" fill="white"/>
<path d="M133.204 50.1666V35.4666H135.472V47.9826H142.36V50.1666H133.204Z" fill="white"/>
<path d="M151.478 50.3766C150.274 50.3766 149.21 50.1386 148.286 49.6626C147.376 49.1866 146.592 48.4726 145.934 47.5206L147.488 45.7356C148.174 46.7156 148.832 47.3946 149.462 47.7726C150.092 48.1506 150.841 48.3396 151.709 48.3396C152.241 48.3396 152.724 48.2556 153.158 48.0876C153.592 47.9196 153.935 47.6886 154.187 47.3946C154.439 47.1006 154.565 46.7646 154.565 46.3866C154.565 46.1346 154.523 45.8966 154.439 45.6726C154.355 45.4486 154.222 45.2456 154.04 45.0636C153.872 44.8816 153.648 44.7136 153.368 44.5596C153.102 44.4056 152.787 44.2726 152.423 44.1606C152.059 44.0346 151.639 43.9296 151.163 43.8456C150.407 43.6916 149.749 43.4886 149.189 43.2366C148.629 42.9846 148.16 42.6696 147.782 42.2916C147.404 41.9136 147.124 41.4866 146.942 41.0106C146.76 40.5206 146.669 39.9746 146.669 39.3726C146.669 38.5746 146.893 37.8676 147.341 37.2516C147.789 36.6356 148.391 36.1526 149.147 35.8026C149.917 35.4386 150.778 35.2566 151.73 35.2566C152.864 35.2566 153.851 35.4806 154.691 35.9286C155.545 36.3626 156.217 36.9996 156.707 37.8396L155.111 39.4146C154.691 38.7286 154.187 38.2036 153.599 37.8396C153.025 37.4756 152.381 37.2936 151.667 37.2936C151.121 37.2936 150.645 37.3776 150.239 37.5456C149.833 37.7136 149.511 37.9516 149.273 38.2596C149.049 38.5536 148.937 38.9036 148.937 39.3096C148.937 39.6036 148.993 39.8766 149.105 40.1286C149.217 40.3666 149.385 40.5836 149.609 40.7796C149.847 40.9616 150.162 41.1296 150.554 41.2836C150.946 41.4236 151.415 41.5496 151.961 41.6616C152.731 41.8296 153.417 42.0466 154.019 42.3126C154.621 42.5646 155.132 42.8656 155.552 43.2156C155.972 43.5656 156.287 43.9576 156.497 44.3916C156.721 44.8256 156.833 45.2946 156.833 45.7986C156.833 46.7366 156.616 47.5486 156.182 48.2346C155.748 48.9206 155.132 49.4526 154.334 49.8306C153.536 50.1946 152.584 50.3766 151.478 50.3766Z" fill="white"/>
<path d="M53.6647 0C43.444 24.7263 0 -0.899871 0 56C15.3155 3.4065 50.2961 39.6973 53.6647 0Z" fill="#0487CF"/>
<path d="M53.1023 12.9077C42.8816 30.1389 22.1793 18.4291 10.2538 38.9752C29.1657 20.8594 47.0442 36.7666 53.1023 12.9077Z" fill="#0487CF"/>
<path d="M51.2087 21.8548C41.42 36.1036 22.2921 22.619 5.40808 47.3701C27.5932 25.8726 41.4259 45.8245 51.2087 21.8548Z" fill="#EFCF46"/>
<path d="M47.8324 31.1323C37.0317 44.9398 21.1713 27.999 1.4693 55.9999C23.6544 34.5025 36.9188 55.3236 47.8324 31.1323Z" fill="#EFCF46"/>
</svg>
