<svg width="130" height="40" viewBox="0 0 130 40" fill="none" xmlns="http://www.w3.org/2000/svg">
<path d="M47.4459 35.866L51.5118 25.2599H53.1621L57.198 35.866H55.4726L53.0721 29.472C53.0421 29.4013 52.9821 29.2296 52.8921 28.9569C52.812 28.6842 52.717 28.3811 52.607 28.0478C52.497 27.7145 52.3969 27.4114 52.3069 27.1387C52.2169 26.8559 52.1569 26.6741 52.1269 26.5932L52.472 26.5781C52.412 26.7498 52.3369 26.967 52.2469 27.2296C52.1669 27.4922 52.0769 27.77 51.9769 28.0629C51.8868 28.3559 51.7968 28.6337 51.7068 28.8963C51.6168 29.1488 51.5418 29.3609 51.4818 29.5326L49.0962 35.866H47.4459ZM49.2463 33.2296L49.8464 31.6539H54.6174L55.3076 33.2296H49.2463Z" fill="white"/>
<path d="M59.8798 35.866V25.2599H61.3351L67.7565 33.9417L67.5164 34.0781C67.4464 33.664 67.3864 33.1842 67.3364 32.6387C67.2964 32.0932 67.2664 31.4922 67.2464 30.8357C67.2264 30.1791 67.2164 29.4821 67.2164 28.7448V25.2599H68.8367V35.866H67.3514L61.035 27.5023L61.2001 27.2902C61.2701 28.0579 61.3251 28.6892 61.3651 29.1842C61.4051 29.669 61.4351 30.0579 61.4551 30.3508C61.4751 30.6438 61.4851 30.8761 61.4851 31.0478C61.4951 31.2094 61.5001 31.3458 61.5001 31.4569V35.866H59.8798Z" fill="white"/>
<path d="M77.3064 36.0175C76.5462 36.0175 75.8361 35.8811 75.1759 35.6084C74.5158 35.3256 73.9357 34.9367 73.4356 34.4417C72.9354 33.9468 72.5454 33.371 72.2653 32.7145C71.9952 32.0478 71.8602 31.3306 71.8602 30.5629C71.8602 29.8054 71.9952 29.0983 72.2653 28.4417C72.5454 27.7852 72.9304 27.2145 73.4206 26.7296C73.9207 26.2347 74.5008 25.8508 75.1609 25.5781C75.8211 25.3054 76.5312 25.169 77.2914 25.169C77.8215 25.169 78.3366 25.2448 78.8367 25.3963C79.3468 25.5478 79.8069 25.7599 80.217 26.0326C80.6271 26.3054 80.9622 26.6185 81.2222 26.972L80.172 28.0781C79.7219 27.6438 79.2518 27.3155 78.7617 27.0932C78.2816 26.871 77.7915 26.7599 77.2914 26.7599C76.7513 26.7599 76.2512 26.8559 75.7911 27.0478C75.341 27.2397 74.9409 27.5074 74.5908 27.8508C74.2507 28.1943 73.9857 28.5983 73.7956 29.0629C73.6056 29.5175 73.5106 30.0175 73.5106 30.5629C73.5106 31.0882 73.6106 31.5882 73.8106 32.0629C74.0107 32.5276 74.2857 32.9367 74.6358 33.2902C74.9959 33.6438 75.406 33.9215 75.8661 34.1236C76.3362 34.3256 76.8313 34.4266 77.3514 34.4266C77.7415 34.4266 78.1116 34.371 78.4616 34.2599C78.8117 34.1387 79.1218 33.972 79.3918 33.7599C79.6619 33.5478 79.8719 33.3054 80.022 33.0326C80.172 32.7498 80.247 32.4518 80.247 32.1387V31.8357L80.4721 32.0478H77.2614V30.4266H81.9124C81.9324 30.5377 81.9474 30.6488 81.9574 30.7599C81.9674 30.8609 81.9724 30.9619 81.9724 31.0629C81.9824 31.1539 81.9874 31.2448 81.9874 31.3357C81.9874 32.0326 81.8674 32.669 81.6273 33.2448C81.3872 33.8104 81.0522 34.3003 80.6221 34.7145C80.202 35.1286 79.7069 35.4518 79.1368 35.6842C78.5767 35.9064 77.9665 36.0175 77.3064 36.0175Z" fill="white"/>
<path d="M84.9307 35.866V25.2599H91.5471V26.8357H86.5511V34.2902H91.5471V35.866H84.9307ZM85.6659 31.2145V29.6387H90.7219V31.2145H85.6659Z" fill="white"/>
<path d="M94.9801 35.866V25.2599H96.6004V34.2902H101.521V35.866H94.9801Z" fill="white"/>
<path d="M108.036 36.0175C107.175 36.0175 106.415 35.8458 105.755 35.5023C105.105 35.1589 104.545 34.6438 104.075 33.9569L105.185 32.669C105.675 33.3761 106.145 33.866 106.595 34.1387C107.045 34.4114 107.581 34.5478 108.201 34.5478C108.581 34.5478 108.926 34.4872 109.236 34.366C109.546 34.2448 109.791 34.0781 109.971 33.866C110.151 33.6539 110.241 33.4114 110.241 33.1387C110.241 32.9569 110.211 32.7852 110.151 32.6235C110.091 32.4619 109.996 32.3155 109.866 32.1842C109.746 32.0528 109.586 31.9316 109.386 31.8205C109.196 31.7094 108.971 31.6134 108.711 31.5326C108.451 31.4417 108.151 31.366 107.811 31.3054C107.271 31.1943 106.8 31.0478 106.4 30.866C106 30.6842 105.665 30.4569 105.395 30.1842C105.125 29.9114 104.925 29.6033 104.795 29.2599C104.665 28.9064 104.6 28.5124 104.6 28.0781C104.6 27.5023 104.76 26.9922 105.08 26.5478C105.4 26.1033 105.83 25.7549 106.37 25.5023C106.92 25.2397 107.536 25.1084 108.216 25.1084C109.026 25.1084 109.731 25.27 110.331 25.5932C110.941 25.9064 111.421 26.366 111.771 26.972L110.631 28.1084C110.331 27.6134 109.971 27.2347 109.551 26.972C109.141 26.7094 108.681 26.5781 108.171 26.5781C107.781 26.5781 107.441 26.6387 107.15 26.7599C106.86 26.8811 106.63 27.0528 106.46 27.2751C106.3 27.4872 106.22 27.7397 106.22 28.0326C106.22 28.2448 106.26 28.4417 106.34 28.6236C106.42 28.7953 106.54 28.9518 106.7 29.0932C106.87 29.2246 107.095 29.3458 107.376 29.4569C107.656 29.5579 107.991 29.6488 108.381 29.7296C108.931 29.8508 109.421 30.0074 109.851 30.1993C110.281 30.3811 110.646 30.5983 110.946 30.8508C111.246 31.1033 111.471 31.3862 111.621 31.6993C111.781 32.0124 111.861 32.3508 111.861 32.7145C111.861 33.3912 111.706 33.9771 111.396 34.472C111.086 34.967 110.646 35.3508 110.076 35.6235C109.506 35.8862 108.826 36.0175 108.036 36.0175Z" fill="white"/>
<path d="M51.3601 16.3945C50.6106 16.3945 49.9397 16.2325 49.3475 15.9087C48.7553 15.5755 48.288 15.1221 47.9456 14.5484C47.6125 13.9654 47.4459 13.3084 47.4459 12.5774V6.58121H48.9449V12.4525C48.9449 12.9244 49.056 13.3501 49.2781 13.7295C49.5002 14.0996 49.7916 14.3957 50.1525 14.6178C50.5227 14.8399 50.9252 14.9509 51.3601 14.9509C51.8228 14.9509 52.2392 14.8399 52.6093 14.6178C52.9887 14.3957 53.2894 14.0996 53.5115 13.7295C53.7336 13.3501 53.8446 12.9244 53.8446 12.4525V6.58121H55.2743V12.5774C55.2743 13.3084 55.1031 13.9654 54.7607 14.5484C54.4276 15.1221 53.9649 15.5755 53.3727 15.9087C52.7805 16.2325 52.1096 16.3945 51.3601 16.3945Z" fill="white"/>
<path d="M59.8796 13.3686L59.7963 11.6891L64.8903 6.59509H66.8613L59.8796 13.3686ZM58.6304 16.3112V6.59509H60.1294V16.3112H58.6304ZM65.0707 16.3112L61.3509 11.3421L62.4613 10.3844L66.9445 16.3112H65.0707Z" fill="white"/>
<path d="M69.5676 16.3112V6.59509H73.7039C74.2591 6.59509 74.768 6.73389 75.2307 7.0115C75.7026 7.27985 76.0774 7.64998 76.355 8.12191C76.6326 8.58458 76.7714 9.10739 76.7714 9.69036C76.7714 10.2178 76.6326 10.7082 76.355 11.1617C76.0774 11.6151 75.7072 11.9806 75.2445 12.2582C74.7819 12.5265 74.2683 12.6607 73.7039 12.6607H71.0666V16.3112H69.5676ZM75.3417 16.3112L72.871 11.9251L74.4117 11.5781L77.16 16.3251L75.3417 16.3112ZM71.0666 11.2172H73.8426C74.111 11.2172 74.3516 11.1524 74.5644 11.0229C74.7772 10.884 74.9438 10.699 75.0641 10.4676C75.1844 10.2271 75.2445 9.96334 75.2445 9.67648C75.2445 9.35261 75.1659 9.07038 75.0086 8.82979C74.8605 8.57995 74.6477 8.38563 74.3701 8.24683C74.1017 8.10803 73.7964 8.03863 73.454 8.03863H71.0666V11.2172Z" fill="white"/>
<path d="M78.9765 16.3112L82.738 6.59509H84.2648L87.9985 16.3112H86.4023L84.1815 10.4538C84.1537 10.389 84.0982 10.2317 84.0149 9.98184C83.9409 9.732 83.853 9.4544 83.7512 9.14903C83.6494 8.84367 83.5569 8.56607 83.4736 8.31623C83.3903 8.05713 83.3348 7.89057 83.3071 7.81654L83.6263 7.80266C83.5708 7.95997 83.5014 8.15892 83.4181 8.39951C83.3441 8.6401 83.2608 8.89457 83.1683 9.16291C83.085 9.43126 83.0017 9.68573 82.9184 9.92632C82.8351 10.1577 82.7657 10.352 82.7102 10.5093L80.5033 16.3112H78.9765ZM80.6421 13.896L81.1973 12.4525H85.6112L86.2496 13.896H80.6421Z" fill="white"/>
<path d="M90.1187 16.3112V14.9232H91.6872V7.9831H90.1187V6.59509H94.7547V7.9831H93.1862V14.9232H94.7547V16.3112H90.1187Z" fill="white"/>
<path d="M97.879 16.3112V6.59509H99.2254L105.166 14.5484L104.944 14.6733C104.879 14.2939 104.824 13.8544 104.777 13.3547C104.74 12.855 104.713 12.3044 104.694 11.703C104.676 11.1015 104.666 10.463 104.666 9.78752V6.59509H106.165V16.3112H104.791L98.9478 8.64935L99.1005 8.45503C99.1653 9.15829 99.2162 9.73663 99.2532 10.19C99.2902 10.6342 99.3179 10.9905 99.3365 11.2588C99.355 11.5272 99.3642 11.74 99.3642 11.8973C99.3735 12.0454 99.3781 12.1703 99.3781 12.2721V16.3112H97.879Z" fill="white"/>
<path d="M109.657 16.3112V6.59509H115.778V8.03863H111.156V14.8676H115.778V16.3112H109.657ZM110.337 12.05V10.6064H115.014V12.05H110.337Z" fill="white"/>
<path d="M118.399 9.71812L117.871 9.07963C118.232 8.91307 118.528 8.72338 118.759 8.51055C118.991 8.29772 119.106 8.11265 119.106 7.95534C119.106 7.83505 119.056 7.72864 118.954 7.6361C118.852 7.53431 118.759 7.45103 118.676 7.38626C118.473 7.2197 118.334 7.0809 118.26 6.96986C118.195 6.85881 118.163 6.74315 118.163 6.62285C118.163 6.40077 118.241 6.22496 118.399 6.09541C118.556 5.95661 118.759 5.88721 119.009 5.88721C119.268 5.88721 119.5 5.95661 119.703 6.09541C119.916 6.22496 120.083 6.4054 120.203 6.63673C120.323 6.86807 120.383 7.14104 120.383 7.45566C120.383 7.69625 120.333 7.93221 120.231 8.16355C120.129 8.39488 119.986 8.61234 119.8 8.81591C119.625 9.01949 119.416 9.19993 119.176 9.35724C118.935 9.51454 118.676 9.63484 118.399 9.71812Z" fill="white"/>
<path d="M126.071 16.45C125.275 16.45 124.572 16.2927 123.961 15.9781C123.36 15.6634 122.842 15.1915 122.407 14.5623L123.434 13.3825C123.887 14.0302 124.322 14.479 124.739 14.7288C125.155 14.9787 125.65 15.1036 126.224 15.1036C126.575 15.1036 126.895 15.0481 127.181 14.937C127.468 14.826 127.695 14.6733 127.862 14.479C128.028 14.2847 128.111 14.0626 128.111 13.8128C128.111 13.6462 128.084 13.4889 128.028 13.3408C127.973 13.1928 127.885 13.0586 127.764 12.9383C127.653 12.818 127.505 12.707 127.32 12.6052C127.144 12.5034 126.936 12.4155 126.696 12.3415C126.455 12.2582 126.177 12.1888 125.863 12.1333C125.363 12.0315 124.928 11.8973 124.558 11.7307C124.188 11.5642 123.878 11.356 123.628 11.1061C123.378 10.8563 123.193 10.5741 123.073 10.2594C122.953 9.93557 122.892 9.57469 122.892 9.1768C122.892 8.64935 123.041 8.18205 123.337 7.7749C123.633 7.36775 124.031 7.04851 124.53 6.81718C125.039 6.57659 125.608 6.45629 126.238 6.45629C126.987 6.45629 127.639 6.60435 128.195 6.90046C128.759 7.18731 129.203 7.60834 129.527 8.16355L128.472 9.20456C128.195 8.75114 127.862 8.40413 127.473 8.16355C127.094 7.92296 126.668 7.80266 126.196 7.80266C125.835 7.80266 125.52 7.85818 125.252 7.96922C124.984 8.08027 124.771 8.23757 124.614 8.44115C124.466 8.63547 124.392 8.86681 124.392 9.13515C124.392 9.32948 124.429 9.50992 124.503 9.67648C124.577 9.83379 124.688 9.97721 124.836 10.1068C124.993 10.2271 125.201 10.3381 125.46 10.4399C125.719 10.5324 126.029 10.6157 126.39 10.6897C126.899 10.8008 127.353 10.9442 127.751 11.12C128.148 11.2866 128.486 11.4855 128.764 11.7169C129.041 11.9482 129.25 12.2073 129.388 12.4941C129.536 12.781 129.61 13.091 129.61 13.4241C129.61 14.0441 129.467 14.5808 129.18 15.0342C128.893 15.4876 128.486 15.8393 127.959 16.0891C127.431 16.3297 126.802 16.45 126.071 16.45Z" fill="white"/>
<path d="M38.3319 0C31.0314 17.6616 0 -0.642765 0 40C10.9397 2.43321 35.9258 28.3552 38.3319 0Z" fill="#0487CF"/>
<path d="M37.9302 9.21973C30.6297 21.5277 15.8424 13.1636 7.32416 27.8394C20.8326 14.8995 33.603 26.2618 37.9302 9.21973Z" fill="#0487CF"/>
<path d="M36.5777 15.6104C29.5857 25.7881 15.923 16.1562 3.86292 33.8356C19.7095 18.4803 29.5899 32.7316 36.5777 15.6104Z" fill="#EFCF46"/>
<path d="M34.166 22.2373C26.4512 32.0998 15.1223 19.9992 1.0495 39.9999C16.896 24.6446 26.3706 39.5168 34.166 22.2373Z" fill="#EFCF46"/>
</svg>
