<svg width="183" height="56" viewBox="0 0 183 56" fill="none" xmlns="http://www.w3.org/2000/svg">
<path d="M72.248 22.9481C71.1328 22.9481 70.1347 22.7085 69.2535 22.2293C68.3724 21.7364 67.6771 21.0654 67.1677 20.2165C66.6721 19.3539 66.4242 18.3817 66.4242 17.3V8.42727H68.6546V17.1152C68.6546 17.8135 68.8198 18.4433 69.1503 19.0047C69.4807 19.5524 69.9144 19.9906 70.4513 20.3192C71.0021 20.6478 71.601 20.8121 72.248 20.8121C72.9364 20.8121 73.556 20.6478 74.1067 20.3192C74.6712 19.9906 75.1186 19.5524 75.4491 19.0047C75.7795 18.4433 75.9447 17.8135 75.9447 17.1152V8.42727H78.0718V17.3C78.0718 18.3817 77.8171 19.3539 77.3077 20.2165C76.8121 21.0654 76.1237 21.7364 75.2426 22.2293C74.3614 22.7085 73.3632 22.9481 72.248 22.9481Z" fill="white"/>
<path d="M84.9239 18.4707L84.8 15.9855L92.3792 8.44781H95.3117L84.9239 18.4707ZM83.0652 22.8249V8.44781H85.2956V22.8249H83.0652ZM92.6477 22.8249L87.113 15.4721L88.7651 14.0549L95.4357 22.8249H92.6477Z" fill="white"/>
<path d="M99.3384 22.8249V8.44781H105.493C106.319 8.44781 107.076 8.6532 107.764 9.06397C108.466 9.46105 109.024 10.0088 109.437 10.7071C109.85 11.3917 110.057 12.1653 110.057 13.0279C110.057 13.8084 109.85 14.5341 109.437 15.205C109.024 15.876 108.473 16.4168 107.785 16.8276C107.097 17.2247 106.332 17.4232 105.493 17.4232H101.569V22.8249H99.3384ZM107.93 22.8249L104.254 16.3347L106.546 15.8212L110.635 22.8455L107.93 22.8249ZM101.569 15.2872H105.699C106.098 15.2872 106.456 15.1914 106.773 14.9997C107.09 14.7943 107.338 14.5204 107.516 14.1781C107.695 13.8221 107.785 13.4319 107.785 13.0074C107.785 12.5282 107.668 12.1105 107.434 11.7545C107.214 11.3848 106.897 11.0973 106.484 10.8919C106.085 10.6865 105.63 10.5838 105.121 10.5838H101.569V15.2872Z" fill="white"/>
<path d="M113.338 22.8249L118.934 8.44781H121.206L126.761 22.8249H124.386L121.082 14.1576C121.041 14.0617 120.958 13.829 120.834 13.4593C120.724 13.0896 120.593 12.6788 120.442 12.2269C120.29 11.7751 120.153 11.3643 120.029 10.9946C119.905 10.6112 119.822 10.3648 119.781 10.2552L120.256 10.2347C120.173 10.4675 120.07 10.7618 119.946 11.1178C119.836 11.4738 119.712 11.8504 119.574 12.2475C119.45 12.6446 119.327 13.0211 119.203 13.3771C119.079 13.7194 118.975 14.007 118.893 14.2397L115.609 22.8249H113.338ZM115.816 19.2512L116.642 17.1152H123.209L124.159 19.2512H115.816Z" fill="white"/>
<path d="M129.916 22.8249V20.771H132.249V10.5017H129.916V8.44781H136.813V10.5017H134.48V20.771H136.813V22.8249H129.916Z" fill="white"/>
<path d="M141.462 22.8249V8.44781H143.465L152.304 20.2165L151.974 20.4013C151.877 19.84 151.795 19.1896 151.726 18.4502C151.671 17.7108 151.63 16.8961 151.602 16.0061C151.575 15.116 151.561 14.1713 151.561 13.1717V8.44781H153.791V22.8249H151.747L143.052 11.4875L143.279 11.2C143.376 12.2406 143.452 13.0964 143.507 13.7673C143.562 14.4246 143.603 14.9517 143.631 15.3488C143.658 15.7459 143.672 16.0608 143.672 16.2936C143.686 16.5127 143.692 16.6975 143.692 16.8481V22.8249H141.462Z" fill="white"/>
<path d="M158.986 22.8249V8.44781H168.093V10.5838H161.216V20.6889H168.093V22.8249H158.986ZM159.998 16.5195V14.3835H166.957V16.5195H159.998Z" fill="white"/>
<path d="M177.279 23.0303C176.095 23.0303 175.049 22.7975 174.14 22.332C173.245 21.8664 172.474 21.1681 171.827 20.237L173.355 18.4912C174.03 19.4497 174.677 20.1138 175.297 20.4835C175.916 20.8532 176.653 21.038 177.506 21.038C178.03 21.038 178.505 20.9559 178.931 20.7916C179.358 20.6273 179.696 20.4013 179.943 20.1138C180.191 19.8263 180.315 19.4976 180.315 19.1279C180.315 18.8815 180.274 18.6487 180.191 18.4296C180.109 18.2106 179.978 18.012 179.799 17.834C179.634 17.656 179.413 17.4917 179.138 17.3411C178.876 17.1905 178.567 17.0604 178.209 16.9508C177.851 16.8276 177.438 16.7249 176.969 16.6428C176.226 16.4921 175.579 16.2936 175.028 16.0471C174.478 15.8007 174.016 15.4926 173.645 15.1229C173.273 14.7532 172.997 14.3356 172.818 13.87C172.639 13.3908 172.55 12.8568 172.55 12.268C172.55 11.4875 172.77 10.7961 173.211 10.1936C173.651 9.59113 174.243 9.11874 174.987 8.77643C175.744 8.42043 176.591 8.24242 177.527 8.24242C178.642 8.24242 179.613 8.4615 180.439 8.89966C181.279 9.32413 181.94 9.94714 182.422 10.7687L180.852 12.3091C180.439 11.6382 179.943 11.1247 179.365 10.7687C178.801 10.4127 178.167 10.2347 177.465 10.2347C176.928 10.2347 176.46 10.3168 176.061 10.4811C175.662 10.6455 175.345 10.8782 175.111 11.1795C174.891 11.467 174.78 11.8093 174.78 12.2064C174.78 12.4939 174.835 12.7609 174.946 13.0074C175.056 13.2402 175.221 13.4524 175.441 13.6441C175.675 13.8221 175.985 13.9864 176.371 14.137C176.756 14.274 177.217 14.3972 177.754 14.5067C178.511 14.671 179.186 14.8833 179.778 15.1434C180.37 15.3899 180.873 15.6843 181.286 16.0266C181.699 16.3689 182.009 16.7523 182.215 17.1768C182.435 17.6012 182.545 18.0599 182.545 18.5529C182.545 19.4703 182.332 20.2644 181.905 20.9354C181.478 21.6063 180.873 22.1266 180.088 22.4963C179.303 22.8523 178.367 23.0303 177.279 23.0303Z" fill="white"/>
<path d="M66.4242 50.2121L72.1165 35.3636H74.4269L80.0771 50.2121H77.6616L74.3009 41.2606C74.2589 41.1616 74.1749 40.9212 74.0489 40.5394C73.9368 40.1576 73.8038 39.7333 73.6498 39.2667C73.4957 38.8 73.3557 38.3758 73.2297 37.9939C73.1037 37.598 73.0196 37.3434 72.9776 37.2303L73.4607 37.2091C73.3767 37.4495 73.2717 37.7535 73.1457 38.1212C73.0336 38.4889 72.9076 38.8778 72.7676 39.2879C72.6416 39.698 72.5155 40.0869 72.3895 40.4545C72.2635 40.8081 72.1585 41.1051 72.0744 41.3455L68.7347 50.2121H66.4242ZM68.9448 46.5212L69.785 44.3152H76.4644L77.4306 46.5212H68.9448Z" fill="white"/>
<path d="M83.8317 50.2121V35.3636H85.8691L94.8591 47.5182L94.523 47.7091C94.425 47.1293 94.341 46.4576 94.2709 45.6939C94.2149 44.9303 94.1729 44.0889 94.1449 43.1697C94.1169 42.2505 94.1029 41.2747 94.1029 40.2424V35.3636H96.3714V50.2121H94.2919L85.4491 38.503L85.6801 38.2061C85.7781 39.2808 85.8551 40.1646 85.9112 40.8576C85.9672 41.5364 86.0092 42.0808 86.0372 42.4909C86.0652 42.901 86.0792 43.2263 86.0792 43.4667C86.0932 43.6929 86.1002 43.8838 86.1002 44.0394V50.2121H83.8317Z" fill="white"/>
<path d="M108.229 50.4242C107.165 50.4242 106.17 50.2333 105.246 49.8515C104.322 49.4556 103.51 48.9111 102.81 48.2182C102.11 47.5253 101.564 46.7192 101.171 45.8C100.793 44.8667 100.604 43.8626 100.604 42.7879C100.604 41.7273 100.793 40.7374 101.171 39.8182C101.564 38.899 102.103 38.1 102.789 37.4212C103.489 36.7283 104.301 36.1909 105.225 35.8091C106.149 35.4273 107.144 35.2364 108.208 35.2364C108.95 35.2364 109.671 35.3424 110.371 35.5545C111.086 35.7667 111.73 36.0636 112.304 36.4455C112.878 36.8273 113.347 37.2657 113.711 37.7606L112.241 39.3091C111.611 38.701 110.953 38.2414 110.266 37.9303C109.594 37.6192 108.908 37.4636 108.208 37.4636C107.452 37.4636 106.752 37.598 106.107 37.8667C105.477 38.1354 104.917 38.5101 104.427 38.9909C103.951 39.4717 103.58 40.0374 103.314 40.6879C103.048 41.3242 102.915 42.0242 102.915 42.7879C102.915 43.5232 103.055 44.2232 103.335 44.8879C103.615 45.5384 104 46.1111 104.49 46.6061C104.994 47.101 105.568 47.4899 106.212 47.7727C106.871 48.0556 107.564 48.197 108.292 48.197C108.838 48.197 109.356 48.1192 109.846 47.9636C110.336 47.7939 110.77 47.5606 111.149 47.2636C111.527 46.9667 111.821 46.6273 112.031 46.2455C112.241 45.8495 112.346 45.4323 112.346 44.9939V44.5697L112.661 44.8667H108.166V42.597H114.677C114.705 42.7525 114.726 42.9081 114.74 43.0636C114.754 43.2051 114.761 43.3465 114.761 43.4879C114.775 43.6152 114.782 43.7424 114.782 43.8697C114.782 44.8455 114.614 45.7364 114.278 46.5424C113.942 47.3343 113.473 48.0202 112.871 48.6C112.283 49.1798 111.59 49.6323 110.791 49.9576C110.007 50.2687 109.153 50.4242 108.229 50.4242Z" fill="white"/>
<path d="M118.903 50.2121V35.3636H128.166V37.5697H121.171V48.0061H128.166V50.2121H118.903ZM119.932 43.7V41.4939H127.011V43.7H119.932Z" fill="white"/>
<path d="M132.972 50.2121V35.3636H135.241V48.0061H142.13V50.2121H132.972Z" fill="white"/>
<path d="M151.25 50.4242C150.046 50.4242 148.981 50.1838 148.057 49.703C147.147 49.2222 146.363 48.501 145.705 47.5394L147.259 45.7364C147.945 46.7263 148.603 47.4121 149.233 47.7939C149.864 48.1758 150.613 48.3667 151.481 48.3667C152.013 48.3667 152.496 48.2818 152.93 48.1121C153.364 47.9424 153.707 47.7091 153.959 47.4121C154.212 47.1152 154.338 46.7758 154.338 46.3939C154.338 46.1394 154.296 45.899 154.212 45.6727C154.128 45.4465 153.994 45.2414 153.812 45.0576C153.644 44.8737 153.42 44.704 153.14 44.5485C152.874 44.3929 152.559 44.2586 152.195 44.1455C151.831 44.0182 151.411 43.9121 150.935 43.8273C150.179 43.6717 149.521 43.4667 148.96 43.2121C148.4 42.9576 147.931 42.6394 147.553 42.2576C147.175 41.8758 146.895 41.4444 146.713 40.9636C146.531 40.4687 146.44 39.9172 146.44 39.3091C146.44 38.503 146.664 37.7889 147.112 37.1667C147.56 36.5444 148.162 36.0566 148.918 35.703C149.689 35.3354 150.55 35.1515 151.502 35.1515C152.636 35.1515 153.623 35.3778 154.464 35.8303C155.318 36.2687 155.99 36.9121 156.48 37.7606L154.884 39.3515C154.464 38.6586 153.959 38.1283 153.371 37.7606C152.797 37.3929 152.153 37.2091 151.439 37.2091C150.893 37.2091 150.417 37.2939 150.011 37.4636C149.605 37.6333 149.283 37.8737 149.044 38.1848C148.82 38.4818 148.708 38.8354 148.708 39.2455C148.708 39.5424 148.764 39.8182 148.876 40.0727C148.988 40.3131 149.156 40.5323 149.381 40.7303C149.619 40.9141 149.934 41.0838 150.326 41.2394C150.718 41.3808 151.187 41.5081 151.733 41.6212C152.503 41.7909 153.189 42.0101 153.791 42.2788C154.394 42.5333 154.905 42.8374 155.325 43.1909C155.745 43.5444 156.06 43.9404 156.27 44.3788C156.494 44.8172 156.606 45.2909 156.606 45.8C156.606 46.7475 156.389 47.5677 155.955 48.2606C155.521 48.9535 154.905 49.4909 154.107 49.8727C153.308 50.2404 152.356 50.4242 151.25 50.4242Z" fill="white"/>
<path d="M53.6647 0C43.444 24.7263 0 -0.899871 0 56C15.3155 3.4065 50.2961 39.6973 53.6647 0Z" fill="#0487CF"/>
<path d="M53.1023 12.9077C42.8816 30.1389 22.1793 18.4291 10.2538 38.9752C29.1657 20.8594 47.0442 36.7666 53.1023 12.9077Z" fill="#0487CF"/>
<path d="M51.2088 21.8548C41.42 36.1036 22.2922 22.619 5.40808 47.3701C27.5932 25.8726 41.4259 45.8245 51.2088 21.8548Z" fill="#EFCF46"/>
<path d="M47.8324 31.1323C37.0317 44.9398 21.1713 27.999 1.4693 55.9999C23.6544 34.5025 36.9188 55.3236 47.8324 31.1323Z" fill="#EFCF46"/>
</svg>
