<svg width="36" height="32" viewBox="0 0 36 32" fill="none" xmlns="http://www.w3.org/2000/svg">
<path d="M33.2346 1L20.3979 10.4238L22.785 4.87005L33.2346 1Z" fill="#E17726" stroke="#E17726" stroke-width="0.25" stroke-linecap="round" stroke-linejoin="round"/>
<path d="M3.62549 1L16.3478 10.5118L14.0751 4.87004L3.62549 1Z" fill="#E27625" stroke="#E27625" stroke-width="0.25" stroke-linecap="round" stroke-linejoin="round"/>
<path d="M28.6127 22.8504L25.1973 28.0273L32.5107 30.0251L34.6057 22.9636L28.6127 22.8504Z" fill="#E27625" stroke="#E27625" stroke-width="0.25" stroke-linecap="round" stroke-linejoin="round"/>
<path d="M2.2666 22.9636L4.34889 30.0251L11.6497 28.0273L8.24686 22.8504L2.2666 22.9636Z" fill="#E27625" stroke="#E27625" stroke-width="0.25" stroke-linecap="round" stroke-linejoin="round"/>
<path d="M11.2561 14.1053L9.22461 17.1461L16.4619 17.4728L16.2206 9.74529L11.2561 14.1053Z" fill="#E27625" stroke="#E27625" stroke-width="0.25" stroke-linecap="round" stroke-linejoin="round"/>
<path d="M25.6036 14.1053L20.563 9.65728L20.3979 17.4728L27.6351 17.1461L25.6036 14.1053Z" fill="#E27625" stroke="#E27625" stroke-width="0.25" stroke-linecap="round" stroke-linejoin="round"/>
<path d="M11.6494 28.0276L16.0298 25.9292L12.2589 23.0141L11.6494 28.0276Z" fill="#E27625" stroke="#E27625" stroke-width="0.25" stroke-linecap="round" stroke-linejoin="round"/>
<path d="M20.8296 25.9292L25.1973 28.0276L24.6005 23.0141L20.8296 25.9292Z" fill="#E27625" stroke="#E27625" stroke-width="0.25" stroke-linecap="round" stroke-linejoin="round"/>
<path d="M25.1973 28.0274L20.8296 25.9291L21.1851 28.7436L21.1469 29.9373L25.1973 28.0274Z" fill="#D5BFB2" stroke="#D5BFB2" stroke-width="0.25" stroke-linecap="round" stroke-linejoin="round"/>
<path d="M11.6494 28.0274L15.7125 29.9373L15.6871 28.7436L16.0298 25.9291L11.6494 28.0274Z" fill="#D5BFB2" stroke="#D5BFB2" stroke-width="0.25" stroke-linecap="round" stroke-linejoin="round"/>
<path d="M15.7886 21.1541L12.1572 20.0987L14.722 18.9301L15.7886 21.1541Z" fill="#233447" stroke="#233447" stroke-width="0.25" stroke-linecap="round" stroke-linejoin="round"/>
<path d="M21.0708 21.1541L22.1374 18.9301L24.7149 20.0987L21.0708 21.1541Z" fill="#233447" stroke="#233447" stroke-width="0.25" stroke-linecap="round" stroke-linejoin="round"/>
<path d="M11.6498 28.0273L12.2847 22.8504L8.24707 22.9636L11.6498 28.0273Z" fill="#CC6228" stroke="#CC6228" stroke-width="0.25" stroke-linecap="round" stroke-linejoin="round"/>
<path d="M24.5747 22.8504L25.1969 28.0273L28.6123 22.9636L24.5747 22.8504Z" fill="#CC6228" stroke="#CC6228" stroke-width="0.25" stroke-linecap="round" stroke-linejoin="round"/>
<path d="M27.6351 17.1459L20.3979 17.4726L21.0709 21.1542L22.1374 18.9301L24.7149 20.0987L27.6351 17.1459Z" fill="#CC6228" stroke="#CC6228" stroke-width="0.25" stroke-linecap="round" stroke-linejoin="round"/>
<path d="M12.1576 20.0987L14.7224 18.9301L15.7889 21.1542L16.4619 17.4726L9.22461 17.1459L12.1576 20.0987Z" fill="#CC6228" stroke="#CC6228" stroke-width="0.25" stroke-linecap="round" stroke-linejoin="round"/>
<path d="M9.2251 17.1459L12.2597 23.0138L12.158 20.0987L9.2251 17.1459Z" fill="#E27525" stroke="#E27525" stroke-width="0.25" stroke-linecap="round" stroke-linejoin="round"/>
<path d="M24.7148 20.0987L24.6006 23.0138L27.6352 17.1459L24.7148 20.0987Z" fill="#E27525" stroke="#E27525" stroke-width="0.25" stroke-linecap="round" stroke-linejoin="round"/>
<path d="M16.4621 17.4726L15.7891 21.1542L16.6398 25.5017L16.8302 19.772L16.4621 17.4726Z" fill="#E27525" stroke="#E27525" stroke-width="0.25" stroke-linecap="round" stroke-linejoin="round"/>
<path d="M20.3976 17.4726L20.042 19.7595L20.2198 25.5017L21.0705 21.1542L20.3976 17.4726Z" fill="#E27525" stroke="#E27525" stroke-width="0.25" stroke-linecap="round" stroke-linejoin="round"/>
<path d="M21.0709 21.1542L20.2202 25.5016L20.8297 25.9289L24.6007 23.0137L24.715 20.0986L21.0709 21.1542Z" fill="#F5841F" stroke="#F5841F" stroke-width="0.25" stroke-linecap="round" stroke-linejoin="round"/>
<path d="M12.1572 20.0986L12.2589 23.0137L16.0298 25.9289L16.6393 25.5016L15.7886 21.1542L12.1572 20.0986Z" fill="#F5841F" stroke="#F5841F" stroke-width="0.25" stroke-linecap="round" stroke-linejoin="round"/>
<path d="M21.1467 29.9374L21.1848 28.7437L20.8547 28.4672H16.0045L15.6871 28.7437L15.7125 29.9374L11.6494 28.0275L13.0715 29.1834L15.9537 31.1562H20.8927L23.7876 29.1834L25.197 28.0275L21.1467 29.9374Z" fill="#C0AC9D" stroke="#C0AC9D" stroke-width="0.25" stroke-linecap="round" stroke-linejoin="round"/>
<path d="M20.8297 25.9291L20.2203 25.5019H16.6397L16.0304 25.9291L15.6875 28.7437L16.0049 28.4672H20.8551L21.1853 28.7437L20.8297 25.9291Z" fill="#161616" stroke="#161616" stroke-width="0.25" stroke-linecap="round" stroke-linejoin="round"/>
<path d="M33.7804 11.0395L34.8597 5.83756L33.2344 1L20.8296 10.1097L25.6036 14.1054L32.3456 16.053L33.8312 14.3316L33.1837 13.8666L34.2121 12.9369L33.4249 12.3337L34.4534 11.5547L33.7804 11.0395Z" fill="#763E1A" stroke="#763E1A" stroke-width="0.25" stroke-linecap="round" stroke-linejoin="round"/>
<path d="M2 5.83756L3.09194 11.0395L2.39361 11.5547L3.43475 12.3337L2.64754 12.9369L3.67599 13.8666L3.02845 14.3316L4.51399 16.053L11.2561 14.1054L16.0301 10.1097L3.62521 1L2 5.83756Z" fill="#763E1A" stroke="#763E1A" stroke-width="0.25" stroke-linecap="round" stroke-linejoin="round"/>
<path d="M32.3457 16.0527L25.6036 14.1052L27.6352 17.146L24.6006 23.0138L28.6128 22.9636H34.6057L32.3457 16.0527Z" fill="#F5841F" stroke="#F5841F" stroke-width="0.25" stroke-linecap="round" stroke-linejoin="round"/>
<path d="M11.256 14.1052L4.51396 16.0527L2.2666 22.9636H8.24686L12.259 23.0138L9.22452 17.146L11.256 14.1052Z" fill="#F5841F" stroke="#F5841F" stroke-width="0.25" stroke-linecap="round" stroke-linejoin="round"/>
<path d="M20.3978 17.473L20.8295 10.1098L22.7848 4.87019H14.0747L16.03 10.1098L16.4617 17.473L16.6268 19.7849L16.6395 25.5021H20.22L20.2327 19.7849L20.3978 17.473Z" fill="#F5841F" stroke="#F5841F" stroke-width="0.25" stroke-linecap="round" stroke-linejoin="round"/>
</svg>
