<svg width="46" height="48" viewBox="0 0 46 48" fill="none" xmlns="http://www.w3.org/2000/svg">
<g clip-path="url(#clip0_93_124)">
<path d="M45.9983 0C37.2377 21.194 0 -0.771318 0 48C13.1276 2.91986 43.1109 34.0263 45.9983 0Z" fill="#0487CF"/>
<path d="M45.5163 11.0635C36.7556 25.8331 19.0109 15.7962 8.789 33.407C24.9992 17.8792 40.3236 31.514 45.5163 11.0635Z" fill="#0487CF"/>
<path d="M43.8932 18.7324C35.5029 30.9457 19.1076 19.3875 4.6355 40.6027C23.6513 22.1763 35.5079 39.2779 43.8932 18.7324Z" fill="#EFCF46"/>
<path d="M40.9992 26.6851C31.7415 38.5201 18.1468 23.9994 1.2594 48.0002C20.2752 29.5738 31.6447 47.4205 40.9992 26.6851Z" fill="#EFCF46"/>
</g>
<defs>
<clipPath id="clip0_93_124">
<rect width="46" height="48" fill="white"/>
</clipPath>
</defs>
</svg>
