<svg id="Слой_1" data-name="Слой 1" xmlns="http://www.w3.org/2000/svg" viewBox="0 0 1000 1000"><defs><style>.cls-1,.cls-3,.cls-7{fill:#1685c7;}.cls-2{fill:#ffd544;}.cls-3{font-size:53.8px;font-family:e-Ukraine-Regular, e-Ukraine;}.cls-4{letter-spacing:-0.02em;}.cls-5{letter-spacing:-0.04em;}.cls-6{letter-spacing:-0.02em;}.cls-7{font-size:83.48px;font-family:e-Ukraine-Medium, e-Ukraine;font-weight:500;letter-spacing:0.02em;}.cls-8{letter-spacing:0.01em;}.cls-9{letter-spacing:0.02em;}</style></defs><path class="cls-1" d="M288.8,366.12c-47.8,115.64-251-4.21-251,261.89C109.46,382.05,273.05,551.77,288.8,366.12Z"/><path class="cls-1" d="M286.17,426.49c-47.8,80.58-144.61,25.82-200.38,121.9C174.23,463.67,257.84,538.06,286.17,426.49Z"/><path class="cls-2" d="M277.31,468.33C231.54,535,142.08,471.9,63.12,587.65,166.87,487.12,231.56,580.42,277.31,468.33Z"/><path class="cls-2" d="M261.52,511.72C211,576.29,136.84,497.06,44.7,628,148.45,527.48,210.49,624.85,261.52,511.72Z"/><text class="cls-3" transform="translate(363.3 625.51)"><tspan class="cls-4">б</tspan><tspan x="35.2" y="0">ла</tspan><tspan class="cls-5" x="106.13" y="0">г</tspan><tspan class="cls-6" x="132.71" y="0">о</tspan><tspan x="169.07" y="0">дійний фонд</tspan></text><text class="cls-7" transform="translate(363.69 433.48)">КРИЛО<tspan class="cls-8"><tspan x="0" y="100.18">Д</tspan><tspan class="cls-9" x="71.13" y="100.18">ОПОМОГИ</tspan></tspan></text></svg>